<svg width="30" height="30" viewBox="0 0 30 30" fill="none" xmlns="http://www.w3.org/2000/svg">
<path d="M2.8125 27.5H27.1875" stroke="#D95700" stroke-width="1.5" stroke-linecap="round" stroke-linejoin="round"/>
<path d="M5 27.5V8.72222C5 6.54424 5 5.45525 5.40873 4.62337C5.76825 3.89163 6.34193 3.2967 7.04754 2.92386C7.84971 2.5 8.8998 2.5 11 2.5H11.5C13.6002 2.5 14.6503 2.5 15.4525 2.92386C16.1581 3.2967 16.7317 3.89163 17.0913 4.62337C17.5 5.45525 17.5 6.54425 17.5 8.72222V27.5" stroke="#D95700" stroke-width="1.5" stroke-linecap="round" stroke-linejoin="round"/>
<path d="M12.5 7.5H10" stroke="#D95700" stroke-width="1.5" stroke-linecap="round" stroke-linejoin="round"/>
<path d="M12.5 12.5H10" stroke="#D95700" stroke-width="1.5" stroke-linecap="round" stroke-linejoin="round"/>
<path d="M12.5 17.5H10" stroke="#D95700" stroke-width="1.5" stroke-linecap="round" stroke-linejoin="round"/>
<path d="M24.75 27.5V14.3044C24.75 11.4243 23.7531 10.3696 21.0938 10.3696H17.5" stroke="#D95700" stroke-width="1.5" stroke-linecap="round" stroke-linejoin="round"/>
</svg>
