<svg width="30" height="24" viewBox="0 0 30 24" fill="none" xmlns="http://www.w3.org/2000/svg">
<path d="M4.0625 13H8.66204C9.49792 13 10.2785 13.3342 10.7422 13.8906L11.7578 15.1094C12.2215 15.6658 13.0021 16 13.838 16H16.162C16.9979 16 17.7785 15.6658 18.2422 15.1094L19.2578 13.8906C19.7215 13.3342 20.5021 13 21.338 13H25.9375" stroke="#D95700" stroke-width="1.5" stroke-linecap="round" stroke-linejoin="round"/>
<path d="M6.8125 4.11L4.1094 11.9567C3.87089 12.6491 3.75 13.364 3.75 14.0822V19C3.75 19.5304 4.01339 20.0391 4.48223 20.4142C4.95107 20.7893 5.58696 21 6.25 21H23.75C24.413 21 25.0489 20.7893 25.5178 20.4142C25.9866 20.0391 26.25 19.5304 26.25 19V14.0822C26.25 13.364 26.1291 12.6491 25.8906 11.9567L23.1875 4.11C22.9805 3.77679 22.6615 3.49637 22.2662 3.30028C21.8709 3.10419 21.4151 3.0002 20.95 3H9.05C8.58489 3.0002 8.12908 3.10419 7.73381 3.30028C7.33853 3.49637 7.01947 3.77679 6.8125 4.11Z" stroke="#D95700" stroke-width="1.5" stroke-linecap="round" stroke-linejoin="round"/>
</svg>
