<svg width="15" height="15" viewBox="0 0 15 15" fill="none" xmlns="http://www.w3.org/2000/svg">
<path d="M6.5625 6.875V5.63852L7.5 4.95509L8.4375 5.63852V6.875C8.4375 6.9613 8.36754 7.03125 8.28125 7.03125H6.71875C6.63246 7.03125 6.5625 6.9613 6.5625 6.875Z" fill="#A0A0A0"/>
<path d="M3.83736 2.90475C4.80976 1.9446 6.12737 1.40625 7.50002 1.40625C8.87267 1.40625 10.1903 1.9446 11.1627 2.90475C12.0431 3.77411 12.5018 4.74639 12.6231 5.75594C12.7434 6.75771 12.5279 7.76282 12.1174 8.70483C11.3006 10.5796 9.67784 12.2852 8.12212 13.3946C7.74975 13.6601 7.25029 13.6601 6.87792 13.3946C5.3222 12.2852 3.69945 10.5796 2.88261 8.70483C2.47216 7.76281 2.25661 6.75771 2.37694 5.75594C2.4982 4.74639 2.9569 3.77411 3.83736 2.90475ZM7.77613 3.99622C7.61159 3.87626 7.38841 3.87626 7.22387 3.99622L5.81762 5.02137C5.69658 5.10961 5.625 5.25037 5.625 5.40016V6.875C5.625 7.47906 6.11469 7.96875 6.71875 7.96875H8.28125C8.88531 7.96875 9.375 7.47906 9.375 6.875V5.40016C9.375 5.25037 9.30342 5.10961 9.18238 5.02137L7.77613 3.99622Z" fill="#A0A0A0"/>
</svg>
