<svg width="15" height="15" viewBox="0 0 15 15" fill="none" xmlns="http://www.w3.org/2000/svg">
<path d="M5.62771 2.13517C5.26971 1.62898 4.77528 1.4009 4.24957 1.40635C3.75131 1.41151 3.26596 1.62422 2.86116 1.90799C2.45176 2.19498 2.08631 2.58091 1.82509 2.99424C1.5687 3.39993 1.38353 3.87931 1.40865 4.34728C1.52955 6.59903 2.79599 9.00532 4.57551 10.786C6.35355 12.5651 8.72834 13.8014 11.1259 13.5649C11.5953 13.5185 12.0398 13.2797 12.4033 12.9744C12.771 12.6656 13.0902 12.2608 13.3049 11.8245C13.5179 11.3918 13.6445 10.8932 13.5746 10.4075C13.5016 9.90084 13.219 9.44867 12.6979 9.14883C12.5868 9.08493 12.4873 9.02291 12.3781 8.95489C12.2846 8.89658 12.1839 8.83384 12.0629 8.76174C11.8286 8.6222 11.5622 8.47629 11.2826 8.37479C11.0029 8.27325 10.6836 8.20626 10.3507 8.25202C10.0068 8.29929 9.68708 8.46172 9.41028 8.75304C9.19682 8.97771 8.8832 9.04834 8.44207 8.92052C7.99332 8.7905 7.48826 8.46778 7.04928 8.03206C6.61071 7.59677 6.27839 7.08863 6.13692 6.62897C5.99686 6.1739 6.05842 5.83932 6.27742 5.60883C6.57295 5.29779 6.73065 4.95115 6.76391 4.58507C6.79626 4.22908 6.70749 3.89406 6.58045 3.60134C6.39085 3.1645 6.06759 2.7301 5.81556 2.3914C5.74611 2.29807 5.68206 2.21201 5.62771 2.13517Z" fill="#D95700"/>
</svg>
