<svg width="30" height="24" viewBox="0 0 30 24" fill="none" xmlns="http://www.w3.org/2000/svg">
<path d="M21.25 19.5C21.25 17.8431 18.4518 16.5 15 16.5C11.5482 16.5 8.75 17.8431 8.75 19.5M26.25 16.5004C26.25 15.2702 24.7074 14.2129 22.5 13.75M3.75 16.5004C3.75 15.2702 5.29262 14.2129 7.5 13.75M22.5 9.73611C23.2672 9.18679 23.75 8.3885 23.75 7.5C23.75 5.84315 22.0711 4.5 20 4.5C19.0396 4.5 18.1634 4.78885 17.5 5.26389M7.5 9.73611C6.73281 9.18679 6.25 8.3885 6.25 7.5C6.25 5.84315 7.92893 4.5 10 4.5C10.9604 4.5 11.8366 4.78885 12.5 5.26389M15 13.5C12.9289 13.5 11.25 12.1569 11.25 10.5C11.25 8.84315 12.9289 7.5 15 7.5C17.0711 7.5 18.75 8.84315 18.75 10.5C18.75 12.1569 17.0711 13.5 15 13.5Z" stroke="#D95700" stroke-width="1.5" stroke-linecap="round" stroke-linejoin="round"/>
</svg>
