<svg width="24" height="24" viewBox="0 0 24 24" fill="none" xmlns="http://www.w3.org/2000/svg">
<path d="M17.5749 7C17.5749 6.58578 17.9107 6.25 18.3249 6.25C19.3883 6.25 20.2463 6.63772 20.8345 7.27071C21.4122 7.89242 21.6885 8.70593 21.6885 9.5C21.6885 10.2941 21.4122 11.1076 20.8345 11.7293C20.2463 12.3623 19.3883 12.75 18.3249 12.75H3C2.58579 12.75 2.25 12.4142 2.25 12C2.25 11.5858 2.58579 11.25 3 11.25H18.3249C19.0039 11.25 19.4527 11.0127 19.7357 10.7082C20.0291 10.3924 20.1885 9.95593 20.1885 9.5C20.1885 9.04406 20.0291 8.60758 19.7357 8.29179C19.4527 7.98727 19.0039 7.75 18.3249 7.75C17.9107 7.75 17.5749 7.41421 17.5749 7Z" fill="#D95700"/>
<path d="M2.25 16C2.25 15.5858 2.58579 15.25 3 15.25H18.411C19.4685 15.25 20.3211 15.6395 20.9045 16.2733C21.4771 16.8953 21.75 17.7079 21.75 18.5C21.75 19.2921 21.4771 20.1047 20.9045 20.7267C20.3211 21.3605 19.4685 21.75 18.411 21.75C17.9968 21.75 17.661 21.4142 17.661 21C17.661 20.5858 17.9968 20.25 18.411 20.25C19.0794 20.25 19.5214 20.0145 19.8009 19.7108C20.0914 19.3953 20.25 18.9579 20.25 18.5C20.25 18.0421 20.0914 17.6047 19.8009 17.2892C19.5214 16.9855 19.0794 16.75 18.411 16.75H3C2.58579 16.75 2.25 16.4142 2.25 16Z" fill="#D95700"/>
<path d="M10.1216 3C10.1216 2.58579 10.4574 2.25 10.8716 2.25C11.9388 2.25 12.8004 2.63661 13.3916 3.26904C13.9727 3.89055 14.2512 4.70462 14.2512 5.5C14.2512 6.29538 13.9727 7.10945 13.3916 7.73096C12.8004 8.36339 11.9388 8.75 10.8716 8.75H3C2.58579 8.75 2.25 8.41421 2.25 8C2.25 7.58579 2.58579 7.25 3 7.25H10.8716C11.5575 7.25 12.0107 7.01161 12.2959 6.70654C12.5914 6.39054 12.7512 5.95462 12.7512 5.5C12.7512 5.04538 12.5914 4.60945 12.2959 4.29346C12.0107 3.98839 11.5575 3.75 10.8716 3.75C10.4574 3.75 10.1216 3.41421 10.1216 3Z" fill="#D95700"/>
</svg>
